<mxfile host="app.diagrams.net" modified="2020-12-25T02:31:19.803Z" agent="5.0 (Windows NT 10.0; Win64; x64) AppleWebKit/537.36 (KHTML, like Gecko) Chrome/87.0.4280.88 Safari/537.36" etag="kyy-gQ2k5UM7QQ0Y9OcX" version="14.1.2" type="github" pages="2">
  <diagram name="commit" id="0783ab3e-0a74-02c8-0abd-f7b4e66b4bec">
    <mxGraphModel dx="782" dy="444" grid="1" gridSize="10" guides="1" tooltips="1" connect="1" arrows="1" fold="1" page="1" pageScale="1" pageWidth="850" pageHeight="1100" background="#F1FAEE" math="0" shadow="0">
      <root>
        <mxCell id="0" />
        <mxCell id="1" parent="0" />
        <mxCell id="d80aJWsLgKcLqTouYtsv-48" style="edgeStyle=orthogonalEdgeStyle;curved=0;rounded=1;sketch=0;orthogonalLoop=1;jettySize=auto;html=1;strokeColor=#457B9D;fillColor=#A8DADC;fontColor=#1D3557;" edge="1" parent="1" source="d80aJWsLgKcLqTouYtsv-1" target="d80aJWsLgKcLqTouYtsv-3">
          <mxGeometry relative="1" as="geometry" />
        </mxCell>
        <mxCell id="d80aJWsLgKcLqTouYtsv-1" value="TX1" style="rounded=0;whiteSpace=wrap;html=1;strokeColor=#457B9D;fillColor=#A8DADC;fontColor=#1D3557;" vertex="1" parent="1">
          <mxGeometry x="90" y="30" width="110" height="40" as="geometry" />
        </mxCell>
        <mxCell id="d80aJWsLgKcLqTouYtsv-46" style="edgeStyle=orthogonalEdgeStyle;curved=0;rounded=1;sketch=0;orthogonalLoop=1;jettySize=auto;html=1;strokeColor=#457B9D;fillColor=#A8DADC;fontColor=#1D3557;" edge="1" parent="1" source="d80aJWsLgKcLqTouYtsv-3" target="d80aJWsLgKcLqTouYtsv-40">
          <mxGeometry relative="1" as="geometry" />
        </mxCell>
        <mxCell id="d80aJWsLgKcLqTouYtsv-3" value="" style="rounded=0;whiteSpace=wrap;html=1;strokeColor=#457B9D;fillColor=#A8DADC;fontColor=#1D3557;" vertex="1" parent="1">
          <mxGeometry x="110" y="130" width="70" height="280" as="geometry" />
        </mxCell>
        <mxCell id="d80aJWsLgKcLqTouYtsv-5" value="获得 本地锁" style="text;html=1;align=center;verticalAlign=middle;whiteSpace=wrap;rounded=0;fontColor=#1D3557;" vertex="1" parent="1">
          <mxGeometry x="14" y="130" width="80" height="30" as="geometry" />
        </mxCell>
        <mxCell id="d80aJWsLgKcLqTouYtsv-7" value="UPDATE a SET m = m - 100&lt;br&gt;WHERE id = 1" style="text;html=1;strokeColor=none;fillColor=none;align=center;verticalAlign=middle;whiteSpace=wrap;rounded=0;fontColor=#1D3557;" vertex="1" parent="1">
          <mxGeometry x="200" y="170" width="190" height="30" as="geometry" />
        </mxCell>
        <mxCell id="d80aJWsLgKcLqTouYtsv-12" value="" style="shape=table;html=1;whiteSpace=wrap;startSize=0;container=1;collapsible=0;childLayout=tableLayout;strokeColor=#457B9D;fillColor=#A8DADC;fontColor=#1D3557;" vertex="1" parent="1">
          <mxGeometry x="220" y="280" width="110" height="50" as="geometry" />
        </mxCell>
        <mxCell id="d80aJWsLgKcLqTouYtsv-13" value="" style="shape=partialRectangle;html=1;whiteSpace=wrap;collapsible=0;dropTarget=0;pointerEvents=0;fillColor=none;top=0;left=0;bottom=0;right=0;points=[[0,0.5],[1,0.5]];portConstraint=eastwest;strokeColor=#457B9D;fontColor=#1D3557;" vertex="1" parent="d80aJWsLgKcLqTouYtsv-12">
          <mxGeometry width="110" height="20" as="geometry" />
        </mxCell>
        <mxCell id="d80aJWsLgKcLqTouYtsv-14" value="id" style="shape=partialRectangle;html=1;whiteSpace=wrap;connectable=0;fillColor=none;top=0;left=0;bottom=0;right=0;overflow=hidden;strokeColor=#457B9D;fontColor=#1D3557;" vertex="1" parent="d80aJWsLgKcLqTouYtsv-13">
          <mxGeometry width="55" height="20" as="geometry" />
        </mxCell>
        <mxCell id="d80aJWsLgKcLqTouYtsv-15" value="m" style="shape=partialRectangle;html=1;whiteSpace=wrap;connectable=0;fillColor=none;top=0;left=0;bottom=0;right=0;overflow=hidden;strokeColor=#457B9D;fontColor=#1D3557;" vertex="1" parent="d80aJWsLgKcLqTouYtsv-13">
          <mxGeometry x="55" width="55" height="20" as="geometry" />
        </mxCell>
        <mxCell id="d80aJWsLgKcLqTouYtsv-25" value="" style="shape=partialRectangle;html=1;whiteSpace=wrap;collapsible=0;dropTarget=0;pointerEvents=0;fillColor=none;top=0;left=0;bottom=0;right=0;points=[[0,0.5],[1,0.5]];portConstraint=eastwest;strokeColor=#457B9D;fontColor=#1D3557;" vertex="1" parent="d80aJWsLgKcLqTouYtsv-12">
          <mxGeometry y="20" width="110" height="30" as="geometry" />
        </mxCell>
        <mxCell id="d80aJWsLgKcLqTouYtsv-26" value="1" style="shape=partialRectangle;html=1;whiteSpace=wrap;connectable=0;fillColor=none;top=0;left=0;bottom=0;right=0;overflow=hidden;strokeColor=#457B9D;fontColor=#1D3557;" vertex="1" parent="d80aJWsLgKcLqTouYtsv-25">
          <mxGeometry width="55" height="30" as="geometry" />
        </mxCell>
        <mxCell id="d80aJWsLgKcLqTouYtsv-27" value="900" style="shape=partialRectangle;html=1;whiteSpace=wrap;connectable=0;fillColor=none;top=0;left=0;bottom=0;right=0;overflow=hidden;strokeColor=#457B9D;fontColor=#1D3557;" vertex="1" parent="d80aJWsLgKcLqTouYtsv-25">
          <mxGeometry x="55" width="55" height="30" as="geometry" />
        </mxCell>
        <mxCell id="d80aJWsLgKcLqTouYtsv-35" value="获得 全局锁" style="text;html=1;strokeColor=none;fillColor=none;align=center;verticalAlign=middle;whiteSpace=wrap;rounded=0;sketch=0;fontColor=#1D3557;" vertex="1" parent="1">
          <mxGeometry x="23" y="210" width="74" height="30" as="geometry" />
        </mxCell>
        <mxCell id="d80aJWsLgKcLqTouYtsv-36" value="本地提交" style="text;html=1;strokeColor=none;fillColor=none;align=center;verticalAlign=middle;whiteSpace=wrap;rounded=0;sketch=0;fontColor=#1D3557;" vertex="1" parent="1">
          <mxGeometry x="30" y="260" width="60" height="20" as="geometry" />
        </mxCell>
        <mxCell id="d80aJWsLgKcLqTouYtsv-38" value="释放 本地锁" style="text;html=1;strokeColor=none;fillColor=none;align=center;verticalAlign=middle;whiteSpace=wrap;rounded=0;sketch=0;fontColor=#1D3557;" vertex="1" parent="1">
          <mxGeometry x="20" y="360" width="74" height="30" as="geometry" />
        </mxCell>
        <mxCell id="d80aJWsLgKcLqTouYtsv-47" style="edgeStyle=orthogonalEdgeStyle;curved=0;rounded=1;sketch=0;orthogonalLoop=1;jettySize=auto;html=1;strokeColor=#457B9D;fillColor=#A8DADC;fontColor=#1D3557;" edge="1" parent="1" source="d80aJWsLgKcLqTouYtsv-40">
          <mxGeometry relative="1" as="geometry">
            <mxPoint x="145" y="770" as="targetPoint" />
          </mxGeometry>
        </mxCell>
        <mxCell id="d80aJWsLgKcLqTouYtsv-40" value="" style="rounded=0;whiteSpace=wrap;html=1;sketch=0;strokeColor=#457B9D;fillColor=#A8DADC;fontColor=#1D3557;" vertex="1" parent="1">
          <mxGeometry x="110" y="550" width="70" height="60" as="geometry" />
        </mxCell>
        <mxCell id="d80aJWsLgKcLqTouYtsv-43" value="全局提交" style="text;html=1;strokeColor=none;fillColor=none;align=center;verticalAlign=middle;whiteSpace=wrap;rounded=0;sketch=0;fontColor=#1D3557;" vertex="1" parent="1">
          <mxGeometry x="17" y="550" width="74" height="30" as="geometry" />
        </mxCell>
        <mxCell id="d80aJWsLgKcLqTouYtsv-44" value="释放 全局锁" style="text;html=1;strokeColor=none;fillColor=none;align=center;verticalAlign=middle;whiteSpace=wrap;rounded=0;sketch=0;fontColor=#1D3557;" vertex="1" parent="1">
          <mxGeometry x="16" y="600" width="74" height="30" as="geometry" />
        </mxCell>
        <mxCell id="d80aJWsLgKcLqTouYtsv-49" style="edgeStyle=orthogonalEdgeStyle;curved=0;rounded=1;sketch=0;orthogonalLoop=1;jettySize=auto;html=1;strokeColor=#457B9D;fillColor=#A8DADC;fontColor=#1D3557;" edge="1" parent="1" source="d80aJWsLgKcLqTouYtsv-50" target="d80aJWsLgKcLqTouYtsv-52">
          <mxGeometry relative="1" as="geometry" />
        </mxCell>
        <mxCell id="d80aJWsLgKcLqTouYtsv-50" value="TX2" style="rounded=0;whiteSpace=wrap;html=1;strokeColor=#457B9D;fillColor=#A8DADC;fontColor=#1D3557;" vertex="1" parent="1">
          <mxGeometry x="536" y="30" width="110" height="40" as="geometry" />
        </mxCell>
        <mxCell id="d80aJWsLgKcLqTouYtsv-51" style="edgeStyle=orthogonalEdgeStyle;curved=0;rounded=1;sketch=0;orthogonalLoop=1;jettySize=auto;html=1;strokeColor=#457B9D;fillColor=#A8DADC;fontColor=#1D3557;" edge="1" parent="1" source="d80aJWsLgKcLqTouYtsv-52" target="d80aJWsLgKcLqTouYtsv-66">
          <mxGeometry relative="1" as="geometry" />
        </mxCell>
        <mxCell id="d80aJWsLgKcLqTouYtsv-52" value="" style="rounded=0;whiteSpace=wrap;html=1;strokeColor=#457B9D;fillColor=#A8DADC;fontColor=#1D3557;" vertex="1" parent="1">
          <mxGeometry x="556" y="410" width="70" height="490" as="geometry" />
        </mxCell>
        <mxCell id="d80aJWsLgKcLqTouYtsv-53" value="获得 本地锁" style="text;html=1;align=center;verticalAlign=middle;whiteSpace=wrap;rounded=0;fontColor=#1D3557;" vertex="1" parent="1">
          <mxGeometry x="460" y="410" width="80" height="30" as="geometry" />
        </mxCell>
        <mxCell id="d80aJWsLgKcLqTouYtsv-54" value="UPDATE a SET m = m - 100&lt;br&gt;WHERE id = 1" style="text;html=1;strokeColor=none;fillColor=none;align=center;verticalAlign=middle;whiteSpace=wrap;rounded=0;fontColor=#1D3557;" vertex="1" parent="1">
          <mxGeometry x="646" y="450" width="190" height="30" as="geometry" />
        </mxCell>
        <mxCell id="d80aJWsLgKcLqTouYtsv-55" value="" style="shape=table;html=1;whiteSpace=wrap;startSize=0;container=1;collapsible=0;childLayout=tableLayout;strokeColor=#457B9D;fillColor=#A8DADC;fontColor=#1D3557;" vertex="1" parent="1">
          <mxGeometry x="680" y="740" width="110" height="50" as="geometry" />
        </mxCell>
        <mxCell id="d80aJWsLgKcLqTouYtsv-56" value="" style="shape=partialRectangle;html=1;whiteSpace=wrap;collapsible=0;dropTarget=0;pointerEvents=0;fillColor=none;top=0;left=0;bottom=0;right=0;points=[[0,0.5],[1,0.5]];portConstraint=eastwest;strokeColor=#457B9D;fontColor=#1D3557;" vertex="1" parent="d80aJWsLgKcLqTouYtsv-55">
          <mxGeometry width="110" height="20" as="geometry" />
        </mxCell>
        <mxCell id="d80aJWsLgKcLqTouYtsv-57" value="id" style="shape=partialRectangle;html=1;whiteSpace=wrap;connectable=0;fillColor=none;top=0;left=0;bottom=0;right=0;overflow=hidden;strokeColor=#457B9D;fontColor=#1D3557;" vertex="1" parent="d80aJWsLgKcLqTouYtsv-56">
          <mxGeometry width="55" height="20" as="geometry" />
        </mxCell>
        <mxCell id="d80aJWsLgKcLqTouYtsv-58" value="m" style="shape=partialRectangle;html=1;whiteSpace=wrap;connectable=0;fillColor=none;top=0;left=0;bottom=0;right=0;overflow=hidden;strokeColor=#457B9D;fontColor=#1D3557;" vertex="1" parent="d80aJWsLgKcLqTouYtsv-56">
          <mxGeometry x="55" width="55" height="20" as="geometry" />
        </mxCell>
        <mxCell id="d80aJWsLgKcLqTouYtsv-59" value="" style="shape=partialRectangle;html=1;whiteSpace=wrap;collapsible=0;dropTarget=0;pointerEvents=0;fillColor=none;top=0;left=0;bottom=0;right=0;points=[[0,0.5],[1,0.5]];portConstraint=eastwest;strokeColor=#457B9D;fontColor=#1D3557;" vertex="1" parent="d80aJWsLgKcLqTouYtsv-55">
          <mxGeometry y="20" width="110" height="30" as="geometry" />
        </mxCell>
        <mxCell id="d80aJWsLgKcLqTouYtsv-60" value="1" style="shape=partialRectangle;html=1;whiteSpace=wrap;connectable=0;fillColor=none;top=0;left=0;bottom=0;right=0;overflow=hidden;strokeColor=#457B9D;fontColor=#1D3557;" vertex="1" parent="d80aJWsLgKcLqTouYtsv-59">
          <mxGeometry width="55" height="30" as="geometry" />
        </mxCell>
        <mxCell id="d80aJWsLgKcLqTouYtsv-61" value="800" style="shape=partialRectangle;html=1;whiteSpace=wrap;connectable=0;fillColor=none;top=0;left=0;bottom=0;right=0;overflow=hidden;strokeColor=#457B9D;fontColor=#1D3557;" vertex="1" parent="d80aJWsLgKcLqTouYtsv-59">
          <mxGeometry x="55" width="55" height="30" as="geometry" />
        </mxCell>
        <mxCell id="d80aJWsLgKcLqTouYtsv-62" value="获得 全局锁" style="text;html=1;strokeColor=none;fillColor=none;align=center;verticalAlign=middle;whiteSpace=wrap;rounded=0;sketch=0;fontColor=#1D3557;" vertex="1" parent="1">
          <mxGeometry x="463" y="630" width="74" height="30" as="geometry" />
        </mxCell>
        <mxCell id="d80aJWsLgKcLqTouYtsv-63" value="本地提交" style="text;html=1;strokeColor=none;fillColor=none;align=center;verticalAlign=middle;whiteSpace=wrap;rounded=0;sketch=0;fontColor=#1D3557;" vertex="1" parent="1">
          <mxGeometry x="463" y="690" width="60" height="20" as="geometry" />
        </mxCell>
        <mxCell id="d80aJWsLgKcLqTouYtsv-64" value="释放 本地锁" style="text;html=1;strokeColor=none;fillColor=none;align=center;verticalAlign=middle;whiteSpace=wrap;rounded=0;sketch=0;fontColor=#1D3557;" vertex="1" parent="1">
          <mxGeometry x="463" y="850" width="74" height="30" as="geometry" />
        </mxCell>
        <mxCell id="d80aJWsLgKcLqTouYtsv-66" value="" style="rounded=0;whiteSpace=wrap;html=1;sketch=0;strokeColor=#457B9D;fillColor=#A8DADC;fontColor=#1D3557;" vertex="1" parent="1">
          <mxGeometry x="556" y="961" width="70" height="60" as="geometry" />
        </mxCell>
        <mxCell id="d80aJWsLgKcLqTouYtsv-67" value="全局提交" style="text;html=1;strokeColor=none;fillColor=none;align=center;verticalAlign=middle;whiteSpace=wrap;rounded=0;sketch=0;fontColor=#1D3557;" vertex="1" parent="1">
          <mxGeometry x="467" y="960" width="74" height="30" as="geometry" />
        </mxCell>
        <mxCell id="d80aJWsLgKcLqTouYtsv-68" value="释放 全局锁" style="text;html=1;strokeColor=none;fillColor=none;align=center;verticalAlign=middle;whiteSpace=wrap;rounded=0;sketch=0;fontColor=#1D3557;" vertex="1" parent="1">
          <mxGeometry x="467" y="1000" width="74" height="30" as="geometry" />
        </mxCell>
        <mxCell id="d80aJWsLgKcLqTouYtsv-69" value="" style="shape=table;html=1;whiteSpace=wrap;startSize=0;container=1;collapsible=0;childLayout=tableLayout;strokeColor=#457B9D;fillColor=#A8DADC;fontColor=#1D3557;" vertex="1" parent="1">
          <mxGeometry x="340" width="110" height="50" as="geometry" />
        </mxCell>
        <mxCell id="d80aJWsLgKcLqTouYtsv-70" value="" style="shape=partialRectangle;html=1;whiteSpace=wrap;collapsible=0;dropTarget=0;pointerEvents=0;fillColor=none;top=0;left=0;bottom=0;right=0;points=[[0,0.5],[1,0.5]];portConstraint=eastwest;strokeColor=#457B9D;fontColor=#1D3557;" vertex="1" parent="d80aJWsLgKcLqTouYtsv-69">
          <mxGeometry width="110" height="20" as="geometry" />
        </mxCell>
        <mxCell id="d80aJWsLgKcLqTouYtsv-71" value="id" style="shape=partialRectangle;html=1;whiteSpace=wrap;connectable=0;fillColor=none;top=0;left=0;bottom=0;right=0;overflow=hidden;strokeColor=#457B9D;fontColor=#1D3557;" vertex="1" parent="d80aJWsLgKcLqTouYtsv-70">
          <mxGeometry width="55" height="20" as="geometry" />
        </mxCell>
        <mxCell id="d80aJWsLgKcLqTouYtsv-72" value="m" style="shape=partialRectangle;html=1;whiteSpace=wrap;connectable=0;fillColor=none;top=0;left=0;bottom=0;right=0;overflow=hidden;strokeColor=#457B9D;fontColor=#1D3557;" vertex="1" parent="d80aJWsLgKcLqTouYtsv-70">
          <mxGeometry x="55" width="55" height="20" as="geometry" />
        </mxCell>
        <mxCell id="d80aJWsLgKcLqTouYtsv-73" value="" style="shape=partialRectangle;html=1;whiteSpace=wrap;collapsible=0;dropTarget=0;pointerEvents=0;fillColor=none;top=0;left=0;bottom=0;right=0;points=[[0,0.5],[1,0.5]];portConstraint=eastwest;strokeColor=#457B9D;fontColor=#1D3557;" vertex="1" parent="d80aJWsLgKcLqTouYtsv-69">
          <mxGeometry y="20" width="110" height="30" as="geometry" />
        </mxCell>
        <mxCell id="d80aJWsLgKcLqTouYtsv-74" value="1" style="shape=partialRectangle;html=1;whiteSpace=wrap;connectable=0;fillColor=none;top=0;left=0;bottom=0;right=0;overflow=hidden;strokeColor=#457B9D;fontColor=#1D3557;" vertex="1" parent="d80aJWsLgKcLqTouYtsv-73">
          <mxGeometry width="55" height="30" as="geometry" />
        </mxCell>
        <mxCell id="d80aJWsLgKcLqTouYtsv-75" value="1000" style="shape=partialRectangle;html=1;whiteSpace=wrap;connectable=0;fillColor=none;top=0;left=0;bottom=0;right=0;overflow=hidden;strokeColor=#457B9D;fontColor=#1D3557;" vertex="1" parent="d80aJWsLgKcLqTouYtsv-73">
          <mxGeometry x="55" width="55" height="30" as="geometry" />
        </mxCell>
        <mxCell id="d80aJWsLgKcLqTouYtsv-79" value="" style="verticalLabelPosition=bottom;verticalAlign=top;html=1;shape=mxgraph.basic.partConcEllipse;startAngle=0.25;endAngle=0.1;arcWidth=0.5;rounded=0;sketch=0;strokeColor=#457B9D;fillColor=#A8DADC;fontColor=#1D3557;" vertex="1" parent="1">
          <mxGeometry x="450" y="520" width="100" height="100" as="geometry" />
        </mxCell>
        <mxCell id="d80aJWsLgKcLqTouYtsv-80" value="尝试获得 全局锁" style="text;html=1;strokeColor=none;fillColor=none;align=center;verticalAlign=middle;whiteSpace=wrap;rounded=0;sketch=0;fontColor=#1D3557;" vertex="1" parent="1">
          <mxGeometry x="417" y="455" width="123" height="20" as="geometry" />
        </mxCell>
        <mxCell id="d80aJWsLgKcLqTouYtsv-82" value="" style="shape=table;html=1;whiteSpace=wrap;startSize=0;container=1;collapsible=0;childLayout=tableLayout;strokeColor=#457B9D;fillColor=#A8DADC;fontColor=#1D3557;" vertex="1" parent="1">
          <mxGeometry x="680" y="490" width="110" height="50" as="geometry" />
        </mxCell>
        <mxCell id="d80aJWsLgKcLqTouYtsv-83" value="" style="shape=partialRectangle;html=1;whiteSpace=wrap;collapsible=0;dropTarget=0;pointerEvents=0;fillColor=none;top=0;left=0;bottom=0;right=0;points=[[0,0.5],[1,0.5]];portConstraint=eastwest;strokeColor=#457B9D;fontColor=#1D3557;" vertex="1" parent="d80aJWsLgKcLqTouYtsv-82">
          <mxGeometry width="110" height="20" as="geometry" />
        </mxCell>
        <mxCell id="d80aJWsLgKcLqTouYtsv-84" value="id" style="shape=partialRectangle;html=1;whiteSpace=wrap;connectable=0;fillColor=none;top=0;left=0;bottom=0;right=0;overflow=hidden;strokeColor=#457B9D;fontColor=#1D3557;" vertex="1" parent="d80aJWsLgKcLqTouYtsv-83">
          <mxGeometry width="55" height="20" as="geometry" />
        </mxCell>
        <mxCell id="d80aJWsLgKcLqTouYtsv-85" value="m" style="shape=partialRectangle;html=1;whiteSpace=wrap;connectable=0;fillColor=none;top=0;left=0;bottom=0;right=0;overflow=hidden;strokeColor=#457B9D;fontColor=#1D3557;" vertex="1" parent="d80aJWsLgKcLqTouYtsv-83">
          <mxGeometry x="55" width="55" height="20" as="geometry" />
        </mxCell>
        <mxCell id="d80aJWsLgKcLqTouYtsv-86" value="" style="shape=partialRectangle;html=1;whiteSpace=wrap;collapsible=0;dropTarget=0;pointerEvents=0;fillColor=none;top=0;left=0;bottom=0;right=0;points=[[0,0.5],[1,0.5]];portConstraint=eastwest;strokeColor=#457B9D;fontColor=#1D3557;" vertex="1" parent="d80aJWsLgKcLqTouYtsv-82">
          <mxGeometry y="20" width="110" height="30" as="geometry" />
        </mxCell>
        <mxCell id="d80aJWsLgKcLqTouYtsv-87" value="1" style="shape=partialRectangle;html=1;whiteSpace=wrap;connectable=0;fillColor=none;top=0;left=0;bottom=0;right=0;overflow=hidden;strokeColor=#457B9D;fontColor=#1D3557;" vertex="1" parent="d80aJWsLgKcLqTouYtsv-86">
          <mxGeometry width="55" height="30" as="geometry" />
        </mxCell>
        <mxCell id="d80aJWsLgKcLqTouYtsv-88" value="&lt;font color=&quot;#ffff00&quot;&gt;800&lt;/font&gt;" style="shape=partialRectangle;html=1;whiteSpace=wrap;connectable=0;fillColor=none;top=0;left=0;bottom=0;right=0;overflow=hidden;strokeColor=#457B9D;fontColor=#1D3557;" vertex="1" parent="d80aJWsLgKcLqTouYtsv-86">
          <mxGeometry x="55" width="55" height="30" as="geometry" />
        </mxCell>
      </root>
    </mxGraphModel>
  </diagram>
  <diagram id="9FPhu9gmTGINPvm7r6Ce" name="rollback">
    <mxGraphModel dx="782" dy="444" grid="1" gridSize="10" guides="1" tooltips="1" connect="1" arrows="1" fold="1" page="1" pageScale="1" pageWidth="827" pageHeight="1169" background="#F1FAEE" math="0" shadow="0">
      <root>
        <mxCell id="bCaOriFwhjmquvBSGvFn-0" />
        <mxCell id="bCaOriFwhjmquvBSGvFn-1" parent="bCaOriFwhjmquvBSGvFn-0" />
        <mxCell id="baPdYm3olynFZehABaBt-0" style="edgeStyle=orthogonalEdgeStyle;curved=0;rounded=1;sketch=0;orthogonalLoop=1;jettySize=auto;html=1;strokeColor=#457B9D;fillColor=#A8DADC;fontColor=#1D3557;labelBackgroundColor=#F1FAEE;" edge="1" parent="bCaOriFwhjmquvBSGvFn-1" source="baPdYm3olynFZehABaBt-1" target="baPdYm3olynFZehABaBt-3">
          <mxGeometry relative="1" as="geometry" />
        </mxCell>
        <mxCell id="baPdYm3olynFZehABaBt-1" value="TX1" style="rounded=0;whiteSpace=wrap;html=1;strokeColor=#457B9D;fillColor=#A8DADC;fontColor=#1D3557;" vertex="1" parent="bCaOriFwhjmquvBSGvFn-1">
          <mxGeometry x="90" y="30" width="110" height="40" as="geometry" />
        </mxCell>
        <mxCell id="baPdYm3olynFZehABaBt-2" style="edgeStyle=orthogonalEdgeStyle;curved=0;rounded=1;sketch=0;orthogonalLoop=1;jettySize=auto;html=1;strokeColor=#457B9D;fillColor=#A8DADC;fontColor=#1D3557;labelBackgroundColor=#F1FAEE;" edge="1" parent="bCaOriFwhjmquvBSGvFn-1" source="baPdYm3olynFZehABaBt-3" target="baPdYm3olynFZehABaBt-17">
          <mxGeometry relative="1" as="geometry" />
        </mxCell>
        <mxCell id="baPdYm3olynFZehABaBt-3" value="" style="rounded=0;whiteSpace=wrap;html=1;strokeColor=#457B9D;fillColor=#A8DADC;fontColor=#1D3557;" vertex="1" parent="bCaOriFwhjmquvBSGvFn-1">
          <mxGeometry x="110" y="130" width="70" height="280" as="geometry" />
        </mxCell>
        <mxCell id="baPdYm3olynFZehABaBt-4" value="获得 本地锁" style="text;html=1;align=center;verticalAlign=middle;whiteSpace=wrap;rounded=0;fontColor=#1D3557;" vertex="1" parent="bCaOriFwhjmquvBSGvFn-1">
          <mxGeometry x="14" y="130" width="80" height="30" as="geometry" />
        </mxCell>
        <mxCell id="baPdYm3olynFZehABaBt-5" value="UPDATE a SET m = m - 100&lt;br&gt;WHERE id = 1" style="text;html=1;strokeColor=none;fillColor=none;align=center;verticalAlign=middle;whiteSpace=wrap;rounded=0;fontColor=#1D3557;" vertex="1" parent="bCaOriFwhjmquvBSGvFn-1">
          <mxGeometry x="200" y="170" width="190" height="30" as="geometry" />
        </mxCell>
        <mxCell id="baPdYm3olynFZehABaBt-6" value="" style="shape=table;html=1;whiteSpace=wrap;startSize=0;container=1;collapsible=0;childLayout=tableLayout;strokeColor=#457B9D;fillColor=#A8DADC;fontColor=#1D3557;" vertex="1" parent="bCaOriFwhjmquvBSGvFn-1">
          <mxGeometry x="220" y="280" width="110" height="50" as="geometry" />
        </mxCell>
        <mxCell id="baPdYm3olynFZehABaBt-7" value="" style="shape=partialRectangle;html=1;whiteSpace=wrap;collapsible=0;dropTarget=0;pointerEvents=0;fillColor=none;top=0;left=0;bottom=0;right=0;points=[[0,0.5],[1,0.5]];portConstraint=eastwest;strokeColor=#457B9D;fontColor=#1D3557;" vertex="1" parent="baPdYm3olynFZehABaBt-6">
          <mxGeometry width="110" height="20" as="geometry" />
        </mxCell>
        <mxCell id="baPdYm3olynFZehABaBt-8" value="id" style="shape=partialRectangle;html=1;whiteSpace=wrap;connectable=0;fillColor=none;top=0;left=0;bottom=0;right=0;overflow=hidden;strokeColor=#457B9D;fontColor=#1D3557;" vertex="1" parent="baPdYm3olynFZehABaBt-7">
          <mxGeometry width="55" height="20" as="geometry" />
        </mxCell>
        <mxCell id="baPdYm3olynFZehABaBt-9" value="m" style="shape=partialRectangle;html=1;whiteSpace=wrap;connectable=0;fillColor=none;top=0;left=0;bottom=0;right=0;overflow=hidden;strokeColor=#457B9D;fontColor=#1D3557;" vertex="1" parent="baPdYm3olynFZehABaBt-7">
          <mxGeometry x="55" width="55" height="20" as="geometry" />
        </mxCell>
        <mxCell id="baPdYm3olynFZehABaBt-10" value="" style="shape=partialRectangle;html=1;whiteSpace=wrap;collapsible=0;dropTarget=0;pointerEvents=0;fillColor=none;top=0;left=0;bottom=0;right=0;points=[[0,0.5],[1,0.5]];portConstraint=eastwest;strokeColor=#457B9D;fontColor=#1D3557;" vertex="1" parent="baPdYm3olynFZehABaBt-6">
          <mxGeometry y="20" width="110" height="30" as="geometry" />
        </mxCell>
        <mxCell id="baPdYm3olynFZehABaBt-11" value="1" style="shape=partialRectangle;html=1;whiteSpace=wrap;connectable=0;fillColor=none;top=0;left=0;bottom=0;right=0;overflow=hidden;strokeColor=#457B9D;fontColor=#1D3557;" vertex="1" parent="baPdYm3olynFZehABaBt-10">
          <mxGeometry width="55" height="30" as="geometry" />
        </mxCell>
        <mxCell id="baPdYm3olynFZehABaBt-12" value="900" style="shape=partialRectangle;html=1;whiteSpace=wrap;connectable=0;fillColor=none;top=0;left=0;bottom=0;right=0;overflow=hidden;strokeColor=#457B9D;fontColor=#1D3557;" vertex="1" parent="baPdYm3olynFZehABaBt-10">
          <mxGeometry x="55" width="55" height="30" as="geometry" />
        </mxCell>
        <mxCell id="baPdYm3olynFZehABaBt-13" value="获得 全局锁" style="text;html=1;strokeColor=none;fillColor=none;align=center;verticalAlign=middle;whiteSpace=wrap;rounded=0;sketch=0;fontColor=#1D3557;" vertex="1" parent="bCaOriFwhjmquvBSGvFn-1">
          <mxGeometry x="23" y="210" width="74" height="30" as="geometry" />
        </mxCell>
        <mxCell id="baPdYm3olynFZehABaBt-14" value="本地提交" style="text;html=1;strokeColor=none;fillColor=none;align=center;verticalAlign=middle;whiteSpace=wrap;rounded=0;sketch=0;fontColor=#1D3557;" vertex="1" parent="bCaOriFwhjmquvBSGvFn-1">
          <mxGeometry x="30" y="260" width="60" height="20" as="geometry" />
        </mxCell>
        <mxCell id="baPdYm3olynFZehABaBt-15" value="释放 本地锁" style="text;html=1;strokeColor=none;fillColor=none;align=center;verticalAlign=middle;whiteSpace=wrap;rounded=0;sketch=0;fontColor=#1D3557;" vertex="1" parent="bCaOriFwhjmquvBSGvFn-1">
          <mxGeometry x="20" y="360" width="74" height="30" as="geometry" />
        </mxCell>
        <mxCell id="baPdYm3olynFZehABaBt-17" value="" style="rounded=0;whiteSpace=wrap;html=1;sketch=0;strokeColor=#457B9D;fillColor=#A8DADC;fontColor=#1D3557;" vertex="1" parent="bCaOriFwhjmquvBSGvFn-1">
          <mxGeometry x="105" y="550" width="80" height="450" as="geometry" />
        </mxCell>
        <mxCell id="baPdYm3olynFZehABaBt-18" value="分支回滚" style="text;html=1;strokeColor=none;fillColor=none;align=center;verticalAlign=middle;whiteSpace=wrap;rounded=0;sketch=0;fontColor=#1D3557;" vertex="1" parent="bCaOriFwhjmquvBSGvFn-1">
          <mxGeometry x="17" y="550" width="74" height="30" as="geometry" />
        </mxCell>
        <mxCell id="baPdYm3olynFZehABaBt-20" style="edgeStyle=orthogonalEdgeStyle;curved=0;rounded=1;sketch=0;orthogonalLoop=1;jettySize=auto;html=1;strokeColor=#457B9D;fillColor=#A8DADC;fontColor=#1D3557;labelBackgroundColor=#F1FAEE;" edge="1" parent="bCaOriFwhjmquvBSGvFn-1" source="baPdYm3olynFZehABaBt-21" target="baPdYm3olynFZehABaBt-23">
          <mxGeometry relative="1" as="geometry" />
        </mxCell>
        <mxCell id="baPdYm3olynFZehABaBt-21" value="TX2" style="rounded=0;whiteSpace=wrap;html=1;strokeColor=#457B9D;fillColor=#A8DADC;fontColor=#1D3557;" vertex="1" parent="bCaOriFwhjmquvBSGvFn-1">
          <mxGeometry x="536" y="30" width="110" height="40" as="geometry" />
        </mxCell>
        <mxCell id="baPdYm3olynFZehABaBt-23" value="" style="rounded=0;whiteSpace=wrap;html=1;strokeColor=#457B9D;fillColor=#A8DADC;fontColor=#1D3557;" vertex="1" parent="bCaOriFwhjmquvBSGvFn-1">
          <mxGeometry x="556" y="410" width="70" height="490" as="geometry" />
        </mxCell>
        <mxCell id="baPdYm3olynFZehABaBt-24" value="获得 本地锁" style="text;html=1;align=center;verticalAlign=middle;whiteSpace=wrap;rounded=0;fontColor=#1D3557;" vertex="1" parent="bCaOriFwhjmquvBSGvFn-1">
          <mxGeometry x="460" y="410" width="80" height="30" as="geometry" />
        </mxCell>
        <mxCell id="baPdYm3olynFZehABaBt-25" value="UPDATE a SET m = m - 100&lt;br&gt;WHERE id = 1" style="text;html=1;strokeColor=none;fillColor=none;align=center;verticalAlign=middle;whiteSpace=wrap;rounded=0;fontColor=#1D3557;" vertex="1" parent="bCaOriFwhjmquvBSGvFn-1">
          <mxGeometry x="646" y="450" width="190" height="30" as="geometry" />
        </mxCell>
        <mxCell id="baPdYm3olynFZehABaBt-26" value="" style="shape=table;html=1;whiteSpace=wrap;startSize=0;container=1;collapsible=0;childLayout=tableLayout;strokeColor=#457B9D;fillColor=#A8DADC;fontColor=#1D3557;" vertex="1" parent="bCaOriFwhjmquvBSGvFn-1">
          <mxGeometry x="680" y="740" width="110" height="50" as="geometry" />
        </mxCell>
        <mxCell id="baPdYm3olynFZehABaBt-27" value="" style="shape=partialRectangle;html=1;whiteSpace=wrap;collapsible=0;dropTarget=0;pointerEvents=0;fillColor=none;top=0;left=0;bottom=0;right=0;points=[[0,0.5],[1,0.5]];portConstraint=eastwest;strokeColor=#457B9D;fontColor=#1D3557;" vertex="1" parent="baPdYm3olynFZehABaBt-26">
          <mxGeometry width="110" height="20" as="geometry" />
        </mxCell>
        <mxCell id="baPdYm3olynFZehABaBt-28" value="id" style="shape=partialRectangle;html=1;whiteSpace=wrap;connectable=0;fillColor=none;top=0;left=0;bottom=0;right=0;overflow=hidden;strokeColor=#457B9D;fontColor=#1D3557;" vertex="1" parent="baPdYm3olynFZehABaBt-27">
          <mxGeometry width="55" height="20" as="geometry" />
        </mxCell>
        <mxCell id="baPdYm3olynFZehABaBt-29" value="m" style="shape=partialRectangle;html=1;whiteSpace=wrap;connectable=0;fillColor=none;top=0;left=0;bottom=0;right=0;overflow=hidden;strokeColor=#457B9D;fontColor=#1D3557;" vertex="1" parent="baPdYm3olynFZehABaBt-27">
          <mxGeometry x="55" width="55" height="20" as="geometry" />
        </mxCell>
        <mxCell id="baPdYm3olynFZehABaBt-30" value="" style="shape=partialRectangle;html=1;whiteSpace=wrap;collapsible=0;dropTarget=0;pointerEvents=0;fillColor=none;top=0;left=0;bottom=0;right=0;points=[[0,0.5],[1,0.5]];portConstraint=eastwest;strokeColor=#457B9D;fontColor=#1D3557;" vertex="1" parent="baPdYm3olynFZehABaBt-26">
          <mxGeometry y="20" width="110" height="30" as="geometry" />
        </mxCell>
        <mxCell id="baPdYm3olynFZehABaBt-31" value="1" style="shape=partialRectangle;html=1;whiteSpace=wrap;connectable=0;fillColor=none;top=0;left=0;bottom=0;right=0;overflow=hidden;strokeColor=#457B9D;fontColor=#1D3557;" vertex="1" parent="baPdYm3olynFZehABaBt-30">
          <mxGeometry width="55" height="30" as="geometry" />
        </mxCell>
        <mxCell id="baPdYm3olynFZehABaBt-32" value="800" style="shape=partialRectangle;html=1;whiteSpace=wrap;connectable=0;fillColor=none;top=0;left=0;bottom=0;right=0;overflow=hidden;strokeColor=#457B9D;fontColor=#1D3557;" vertex="1" parent="baPdYm3olynFZehABaBt-30">
          <mxGeometry x="55" width="55" height="30" as="geometry" />
        </mxCell>
        <mxCell id="baPdYm3olynFZehABaBt-33" value="获得 全局锁" style="text;html=1;strokeColor=none;fillColor=none;align=center;verticalAlign=middle;whiteSpace=wrap;rounded=0;sketch=0;fontColor=#1D3557;" vertex="1" parent="bCaOriFwhjmquvBSGvFn-1">
          <mxGeometry x="463" y="630" width="74" height="30" as="geometry" />
        </mxCell>
        <mxCell id="baPdYm3olynFZehABaBt-34" value="获取全局锁超时" style="text;html=1;strokeColor=none;fillColor=none;align=center;verticalAlign=middle;whiteSpace=wrap;rounded=0;sketch=0;fontColor=#1D3557;" vertex="1" parent="bCaOriFwhjmquvBSGvFn-1">
          <mxGeometry x="423" y="700" width="113" height="20" as="geometry" />
        </mxCell>
        <mxCell id="baPdYm3olynFZehABaBt-35" value="本地回滚 放弃本地锁" style="text;html=1;strokeColor=none;fillColor=none;align=center;verticalAlign=middle;whiteSpace=wrap;rounded=0;sketch=0;fontColor=#1D3557;" vertex="1" parent="bCaOriFwhjmquvBSGvFn-1">
          <mxGeometry x="423" y="730" width="124" height="30" as="geometry" />
        </mxCell>
        <mxCell id="baPdYm3olynFZehABaBt-39" value="" style="shape=table;html=1;whiteSpace=wrap;startSize=0;container=1;collapsible=0;childLayout=tableLayout;strokeColor=#457B9D;fillColor=#A8DADC;fontColor=#1D3557;" vertex="1" parent="bCaOriFwhjmquvBSGvFn-1">
          <mxGeometry x="340" width="110" height="50" as="geometry" />
        </mxCell>
        <mxCell id="baPdYm3olynFZehABaBt-40" value="" style="shape=partialRectangle;html=1;whiteSpace=wrap;collapsible=0;dropTarget=0;pointerEvents=0;fillColor=none;top=0;left=0;bottom=0;right=0;points=[[0,0.5],[1,0.5]];portConstraint=eastwest;strokeColor=#457B9D;fontColor=#1D3557;" vertex="1" parent="baPdYm3olynFZehABaBt-39">
          <mxGeometry width="110" height="20" as="geometry" />
        </mxCell>
        <mxCell id="baPdYm3olynFZehABaBt-41" value="id" style="shape=partialRectangle;html=1;whiteSpace=wrap;connectable=0;fillColor=none;top=0;left=0;bottom=0;right=0;overflow=hidden;strokeColor=#457B9D;fontColor=#1D3557;" vertex="1" parent="baPdYm3olynFZehABaBt-40">
          <mxGeometry width="55" height="20" as="geometry" />
        </mxCell>
        <mxCell id="baPdYm3olynFZehABaBt-42" value="m" style="shape=partialRectangle;html=1;whiteSpace=wrap;connectable=0;fillColor=none;top=0;left=0;bottom=0;right=0;overflow=hidden;strokeColor=#457B9D;fontColor=#1D3557;" vertex="1" parent="baPdYm3olynFZehABaBt-40">
          <mxGeometry x="55" width="55" height="20" as="geometry" />
        </mxCell>
        <mxCell id="baPdYm3olynFZehABaBt-43" value="" style="shape=partialRectangle;html=1;whiteSpace=wrap;collapsible=0;dropTarget=0;pointerEvents=0;fillColor=none;top=0;left=0;bottom=0;right=0;points=[[0,0.5],[1,0.5]];portConstraint=eastwest;strokeColor=#457B9D;fontColor=#1D3557;" vertex="1" parent="baPdYm3olynFZehABaBt-39">
          <mxGeometry y="20" width="110" height="30" as="geometry" />
        </mxCell>
        <mxCell id="baPdYm3olynFZehABaBt-44" value="1" style="shape=partialRectangle;html=1;whiteSpace=wrap;connectable=0;fillColor=none;top=0;left=0;bottom=0;right=0;overflow=hidden;strokeColor=#457B9D;fontColor=#1D3557;" vertex="1" parent="baPdYm3olynFZehABaBt-43">
          <mxGeometry width="55" height="30" as="geometry" />
        </mxCell>
        <mxCell id="baPdYm3olynFZehABaBt-45" value="1000" style="shape=partialRectangle;html=1;whiteSpace=wrap;connectable=0;fillColor=none;top=0;left=0;bottom=0;right=0;overflow=hidden;strokeColor=#457B9D;fontColor=#1D3557;" vertex="1" parent="baPdYm3olynFZehABaBt-43">
          <mxGeometry x="55" width="55" height="30" as="geometry" />
        </mxCell>
        <mxCell id="baPdYm3olynFZehABaBt-46" value="" style="verticalLabelPosition=bottom;verticalAlign=top;html=1;shape=mxgraph.basic.partConcEllipse;startAngle=0.25;endAngle=0.1;arcWidth=0.5;rounded=0;sketch=0;strokeColor=#457B9D;fillColor=#A8DADC;fontColor=#1D3557;" vertex="1" parent="bCaOriFwhjmquvBSGvFn-1">
          <mxGeometry x="450" y="520" width="100" height="100" as="geometry" />
        </mxCell>
        <mxCell id="baPdYm3olynFZehABaBt-47" value="尝试获得 全局锁" style="text;html=1;strokeColor=none;fillColor=none;align=center;verticalAlign=middle;whiteSpace=wrap;rounded=0;sketch=0;fontColor=#1D3557;" vertex="1" parent="bCaOriFwhjmquvBSGvFn-1">
          <mxGeometry x="417" y="455" width="123" height="20" as="geometry" />
        </mxCell>
        <mxCell id="baPdYm3olynFZehABaBt-48" value="" style="shape=table;html=1;whiteSpace=wrap;startSize=0;container=1;collapsible=0;childLayout=tableLayout;strokeColor=#457B9D;fillColor=#A8DADC;fontColor=#1D3557;" vertex="1" parent="bCaOriFwhjmquvBSGvFn-1">
          <mxGeometry x="680" y="490" width="110" height="50" as="geometry" />
        </mxCell>
        <mxCell id="baPdYm3olynFZehABaBt-49" value="" style="shape=partialRectangle;html=1;whiteSpace=wrap;collapsible=0;dropTarget=0;pointerEvents=0;fillColor=none;top=0;left=0;bottom=0;right=0;points=[[0,0.5],[1,0.5]];portConstraint=eastwest;strokeColor=#457B9D;fontColor=#1D3557;" vertex="1" parent="baPdYm3olynFZehABaBt-48">
          <mxGeometry width="110" height="20" as="geometry" />
        </mxCell>
        <mxCell id="baPdYm3olynFZehABaBt-50" value="id" style="shape=partialRectangle;html=1;whiteSpace=wrap;connectable=0;fillColor=none;top=0;left=0;bottom=0;right=0;overflow=hidden;strokeColor=#457B9D;fontColor=#1D3557;" vertex="1" parent="baPdYm3olynFZehABaBt-49">
          <mxGeometry width="55" height="20" as="geometry" />
        </mxCell>
        <mxCell id="baPdYm3olynFZehABaBt-51" value="m" style="shape=partialRectangle;html=1;whiteSpace=wrap;connectable=0;fillColor=none;top=0;left=0;bottom=0;right=0;overflow=hidden;strokeColor=#457B9D;fontColor=#1D3557;" vertex="1" parent="baPdYm3olynFZehABaBt-49">
          <mxGeometry x="55" width="55" height="20" as="geometry" />
        </mxCell>
        <mxCell id="baPdYm3olynFZehABaBt-52" value="" style="shape=partialRectangle;html=1;whiteSpace=wrap;collapsible=0;dropTarget=0;pointerEvents=0;fillColor=none;top=0;left=0;bottom=0;right=0;points=[[0,0.5],[1,0.5]];portConstraint=eastwest;strokeColor=#457B9D;fontColor=#1D3557;" vertex="1" parent="baPdYm3olynFZehABaBt-48">
          <mxGeometry y="20" width="110" height="30" as="geometry" />
        </mxCell>
        <mxCell id="baPdYm3olynFZehABaBt-53" value="1" style="shape=partialRectangle;html=1;whiteSpace=wrap;connectable=0;fillColor=none;top=0;left=0;bottom=0;right=0;overflow=hidden;strokeColor=#457B9D;fontColor=#1D3557;" vertex="1" parent="baPdYm3olynFZehABaBt-52">
          <mxGeometry width="55" height="30" as="geometry" />
        </mxCell>
        <mxCell id="baPdYm3olynFZehABaBt-54" value="&lt;font color=&quot;#ffff00&quot;&gt;800&lt;/font&gt;" style="shape=partialRectangle;html=1;whiteSpace=wrap;connectable=0;fillColor=none;top=0;left=0;bottom=0;right=0;overflow=hidden;strokeColor=#457B9D;fontColor=#1D3557;" vertex="1" parent="baPdYm3olynFZehABaBt-52">
          <mxGeometry x="55" width="55" height="30" as="geometry" />
        </mxCell>
        <mxCell id="Li8O_YFKO_eMLgO7nrLc-0" value="尝试获得 本地锁" style="text;html=1;strokeColor=none;fillColor=none;align=center;verticalAlign=middle;whiteSpace=wrap;rounded=0;sketch=0;fontColor=#1D3557;" vertex="1" parent="bCaOriFwhjmquvBSGvFn-1">
          <mxGeometry x="207" y="565" width="123" height="20" as="geometry" />
        </mxCell>
        <mxCell id="Li8O_YFKO_eMLgO7nrLc-1" value="" style="verticalLabelPosition=bottom;verticalAlign=top;html=1;shape=mxgraph.basic.partConcEllipse;startAngle=0.25;endAngle=0.1;arcWidth=0.5;rounded=0;sketch=0;strokeColor=#457B9D;fillColor=#A8DADC;fontColor=#1D3557;direction=west;flipV=1;flipH=0;" vertex="1" parent="bCaOriFwhjmquvBSGvFn-1">
          <mxGeometry x="211.5" y="620" width="100" height="100" as="geometry" />
        </mxCell>
        <mxCell id="Li8O_YFKO_eMLgO7nrLc-2" value="&lt;div style=&quot;text-align: center&quot;&gt;&lt;span&gt;&lt;font face=&quot;helvetica&quot;&gt;SET m = 100&lt;/font&gt;&lt;/span&gt;&lt;/div&gt;" style="text;whiteSpace=wrap;html=1;fontColor=#1D3557;" vertex="1" parent="bCaOriFwhjmquvBSGvFn-1">
          <mxGeometry x="16.5" y="820" width="87" height="40" as="geometry" />
        </mxCell>
        <mxCell id="Li8O_YFKO_eMLgO7nrLc-3" value="获得 本地锁" style="text;html=1;align=center;verticalAlign=middle;whiteSpace=wrap;rounded=0;fontColor=#1D3557;" vertex="1" parent="bCaOriFwhjmquvBSGvFn-1">
          <mxGeometry x="221.5" y="760" width="80" height="30" as="geometry" />
        </mxCell>
        <mxCell id="Li8O_YFKO_eMLgO7nrLc-4" value="" style="shape=table;html=1;whiteSpace=wrap;startSize=0;container=1;collapsible=0;childLayout=tableLayout;strokeColor=#457B9D;fillColor=#A8DADC;fontColor=#1D3557;" vertex="1" parent="bCaOriFwhjmquvBSGvFn-1">
          <mxGeometry x="221.5" y="860" width="110" height="50" as="geometry" />
        </mxCell>
        <mxCell id="Li8O_YFKO_eMLgO7nrLc-5" value="" style="shape=partialRectangle;html=1;whiteSpace=wrap;collapsible=0;dropTarget=0;pointerEvents=0;fillColor=none;top=0;left=0;bottom=0;right=0;points=[[0,0.5],[1,0.5]];portConstraint=eastwest;strokeColor=#457B9D;fontColor=#1D3557;" vertex="1" parent="Li8O_YFKO_eMLgO7nrLc-4">
          <mxGeometry width="110" height="20" as="geometry" />
        </mxCell>
        <mxCell id="Li8O_YFKO_eMLgO7nrLc-6" value="id" style="shape=partialRectangle;html=1;whiteSpace=wrap;connectable=0;fillColor=none;top=0;left=0;bottom=0;right=0;overflow=hidden;strokeColor=#457B9D;fontColor=#1D3557;" vertex="1" parent="Li8O_YFKO_eMLgO7nrLc-5">
          <mxGeometry width="55" height="20" as="geometry" />
        </mxCell>
        <mxCell id="Li8O_YFKO_eMLgO7nrLc-7" value="m" style="shape=partialRectangle;html=1;whiteSpace=wrap;connectable=0;fillColor=none;top=0;left=0;bottom=0;right=0;overflow=hidden;strokeColor=#457B9D;fontColor=#1D3557;" vertex="1" parent="Li8O_YFKO_eMLgO7nrLc-5">
          <mxGeometry x="55" width="55" height="20" as="geometry" />
        </mxCell>
        <mxCell id="Li8O_YFKO_eMLgO7nrLc-8" value="" style="shape=partialRectangle;html=1;whiteSpace=wrap;collapsible=0;dropTarget=0;pointerEvents=0;fillColor=none;top=0;left=0;bottom=0;right=0;points=[[0,0.5],[1,0.5]];portConstraint=eastwest;strokeColor=#457B9D;fontColor=#1D3557;" vertex="1" parent="Li8O_YFKO_eMLgO7nrLc-4">
          <mxGeometry y="20" width="110" height="30" as="geometry" />
        </mxCell>
        <mxCell id="Li8O_YFKO_eMLgO7nrLc-9" value="1" style="shape=partialRectangle;html=1;whiteSpace=wrap;connectable=0;fillColor=none;top=0;left=0;bottom=0;right=0;overflow=hidden;strokeColor=#457B9D;fontColor=#1D3557;" vertex="1" parent="Li8O_YFKO_eMLgO7nrLc-8">
          <mxGeometry width="55" height="30" as="geometry" />
        </mxCell>
        <mxCell id="Li8O_YFKO_eMLgO7nrLc-10" value="1000" style="shape=partialRectangle;html=1;whiteSpace=wrap;connectable=0;fillColor=none;top=0;left=0;bottom=0;right=0;overflow=hidden;strokeColor=#457B9D;fontColor=#1D3557;" vertex="1" parent="Li8O_YFKO_eMLgO7nrLc-8">
          <mxGeometry x="55" width="55" height="30" as="geometry" />
        </mxCell>
        <mxCell id="Li8O_YFKO_eMLgO7nrLc-11" value="本地提交" style="text;html=1;strokeColor=none;fillColor=none;align=center;verticalAlign=middle;whiteSpace=wrap;rounded=0;sketch=0;fontColor=#1D3557;" vertex="1" parent="bCaOriFwhjmquvBSGvFn-1">
          <mxGeometry x="20" y="910" width="60" height="20" as="geometry" />
        </mxCell>
        <mxCell id="5Vn5aHKJRahP_QeQgNoo-0" value="释放 全局锁" style="text;html=1;strokeColor=none;fillColor=none;align=center;verticalAlign=middle;whiteSpace=wrap;rounded=0;sketch=0;fontColor=#1D3557;" vertex="1" parent="bCaOriFwhjmquvBSGvFn-1">
          <mxGeometry x="20" y="960" width="74" height="30" as="geometry" />
        </mxCell>
      </root>
    </mxGraphModel>
  </diagram>
</mxfile>
